{"title":"Seethamma Andalu Ramayya Sitralu 2016 TS Telugu Movies xviD-TVMo","uid":13927650,"size":736569523,"categoryP":"video","categoryS":"movies","magnet":"?xt=urn:btih:de3d55ae75dc2c732d1c8fcf8004e75afb8ba1d4&amp;dn=Seethamma+Andalu+Ramayya+Sitralu+2016+TS+Telugu+Movies+xviD-TVMo&amp;tr=udp%3A%2F%2Ftracker.leechers-paradise.org%3A6969&amp;tr=udp%3A%2F%2Fzer0day.ch%3A1337&amp;tr=udp%3A%2F%2Fopen.demonii.com%3A1337&amp;tr=udp%3A%2F%2Ftracker.coppersurfer.tk%3A6969&amp;tr=udp%3A%2F%2Fexodus.desync.com%3A6969","seeders":4,"leechers":2,"uploader":"TvMovize","files":1,"time":1458395419,"description":"Seethamma Andalu Ramayya Sitralu 2016 TS Telugu Movies xviD-TVMovize.mp4\r\n\r\n++ ScreenShots ++\r\n \nhttp://www.image2be.com/movie/SeethammaAndaluRamayyaSitralu/1.html  \nhttp://www.image2be.com/movie/SeethammaAndaluRamayyaSitralu/2.html  \nhttp://www.image2be.com/movie/SeethammaAndaluRamayyaSitralu/3.html  \nhttp://www.image2be.com/movie/SeethammaAndaluRamayyaSitralu/4.html  \nhttp://www.image2be.com/movie/SeethammaAndaluRamayyaSitralu/5.html \r\n\r\n++ Info ++\r\n\r\nFormat : MPEG-4 \r\nFormat profile : Base Media \r\nCodec ID : isom (isom/iso2/avc1/mp41) \r\nFile size : 702 MiB \r\nDuration : 2h 3mn \r\nOverall bit rate : 796 Kbps \r\nWriting application : Lavf57.20.100 \r\n\r\nVideo \r\nID : 1 \r\nFormat : AVC \r\nFormat/Info : Advanced Video Codec \r\nFormat profile :    \r\nFormat settings, CABAC : Yes \r\nFormat settings, ReFrames : 5 frames \r\nCodec ID : avc1 \r\nCodec ID/Info : Advanced Video Coding \r\nDuration : 2h 3mn \r\nBit rate : 725 Kbps \r\nWidth : 608 pixels \r\nHeight : 272 pixels \r\nDisplay aspect ratio : 2.25:1 \r\nFrame rate mode : Constant \r\nFrame rate : 25.000 fps \r\nColor space : YUV \r\nChroma subsampling : 4:2:0 \r\nBit depth : 8 bits \r\nScan type : Progressive \r\nBits/(Pixel*Frame) : 0.175 \r\nStream size : 640 MiB (91%) \r\nWriting library : x264 core 148 r2638 7599210 \r\nEncoding settings : cabac=1 / ref=5 / deblock=1:-1:-1 / analyse=0x3:0x113 / me=umh / subme=8 / psy=1 / psy_rd=1.00:0.15 / mixed_ref=1 / me_range=16 / chroma_me=1 / trellis=1 / 8x8dct=1 / cqm=0 / deadzone=21,11 / fast_pskip=1 / chroma_qp_offset=-3 / threads=8 / lookahead_threads=1 / sliced_threads=0 / nr=0 / decimate=1 / interlaced=0 / bluray_compat=0 / constrained_intra=0 / bframes=3 / b_pyramid=2 / b_adapt=2 / b_bias=0 / direct=3 / weightb=1 / open_gop=0 / weightp=2 / keyint=250 / keyint_min=25 / scenecut=40 / intra_refresh=0 / rc_lookahead=50 / rc=2pass / mbtree=1 / bitrate=725 / ratetol=1.0 / qcomp=0.60 / qpmin=0 / qpmax=69 / qpstep=4 / cplxblur=20.0 / qblur=0.5 / vbv_maxrate=17500 / vbv_bufsize=17500 / nal_hrd=none / filler=0 / ip_ratio=1.40 / aq=1:1.00 \r\nLanguage : English \r\nColor range : Limited \r\nColor primaries : BT.601 NTSC \r\nTransfer characteristics : BT.601 \r\nMatrix coefficients : BT.601 \r\n\r\nAudio \r\nID : 2 \r\nFormat : AAC \r\nFormat/Info : Advanced Audio Codec \r\nFormat profile : LC \r\nCodec ID : 40 \r\nDuration : 2h 3mn \r\nBit rate mode : Constant \r\nBit rate : 64.0 Kbps \r\nChannel(s) : 2 channels \r\nChannel positions : Front: L R \r\nSampling rate : 48.0 KHz \r\nFrame rate : 46.875 fps (1024 spf) \r\nCompression mode : Lossy \r\nStream size : 56.5 MiB (8%) \r\nLanguage : Telugu \r\nDefault : Yes \r\nAlternate group : 1","torrent":{"xt":"urn:btih:de3d55ae75dc2c732d1c8fcf8004e75afb8ba1d4","amp;dn":"Seethamma+Andalu+Ramayya+Sitralu+2016+TS+Telugu+Movies+xviD-TVMo","amp;tr":["udp%3A%2F%2Ftracker.leechers-paradise.org%3A6969","udp%3A%2F%2Fzer0day.ch%3A1337","udp%3A%2F%2Fopen.demonii.com%3A1337","udp%3A%2F%2Ftracker.coppersurfer.tk%3A6969","udp%3A%2F%2Fexodus.desync.com%3A6969"],"infoHash":"de3d55ae75dc2c732d1c8fcf8004e75afb8ba1d4","infoHashBuffer":{"type":"Buffer","data":[222,61,85,174,117,220,44,115,45,28,143,207,128,4,231,90,251,139,161,212]},"announce":[],"urlList":[]}}